<mxfile host="app.diagrams.net" agent="Mozilla/5.0 (Windows NT 10.0; Win64; x64) AppleWebKit/537.36 (KHTML, like Gecko) Chrome/136.0.0.0 Safari/537.36 Edg/136.0.0.0" version="26.2.14">
  <diagram name="Page-1" id="uSIHI0E9cEz-m1zD1QUB">
    <mxGraphModel dx="760" dy="878" grid="0" gridSize="10" guides="1" tooltips="1" connect="1" arrows="1" fold="1" page="0" pageScale="1" pageWidth="827" pageHeight="1169" math="0" shadow="0">
      <root>
        <mxCell id="0" />
        <mxCell id="1" parent="0" />
        <mxCell id="53xvMtXIrenrTS2cK3A5-1" value="QQ客户端" style="swimlane;fillColor=#d5e8d4;" vertex="1" parent="1">
          <mxGeometry x="20" y="20" width="220" height="300" as="geometry" />
        </mxCell>
        <mxCell id="53xvMtXIrenrTS2cK3A5-2" value="登录模块" style="rounded=1;whiteSpace=wrap;html=1;fillColor=#ffffff;" vertex="1" parent="53xvMtXIrenrTS2cK3A5-1">
          <mxGeometry x="20" y="40" width="180" height="30" as="geometry" />
        </mxCell>
        <mxCell id="53xvMtXIrenrTS2cK3A5-3" value="好友管理模块" style="rounded=1;whiteSpace=wrap;html=1;fillColor=#ffffff;" vertex="1" parent="53xvMtXIrenrTS2cK3A5-1">
          <mxGeometry x="20" y="80" width="180" height="30" as="geometry" />
        </mxCell>
        <mxCell id="53xvMtXIrenrTS2cK3A5-4" value="消息模块" style="rounded=1;whiteSpace=wrap;html=1;fillColor=#ffffff;" vertex="1" parent="53xvMtXIrenrTS2cK3A5-1">
          <mxGeometry x="20" y="120" width="180" height="30" as="geometry" />
        </mxCell>
        <mxCell id="53xvMtXIrenrTS2cK3A5-5" value="多媒体模块" style="rounded=1;whiteSpace=wrap;html=1;fillColor=#ffffff;" vertex="1" parent="53xvMtXIrenrTS2cK3A5-1">
          <mxGeometry x="20" y="160" width="180" height="30" as="geometry" />
        </mxCell>
        <mxCell id="53xvMtXIrenrTS2cK3A5-6" value="界面展示层" style="rounded=1;whiteSpace=wrap;html=1;fillColor=#ffffff;" vertex="1" parent="53xvMtXIrenrTS2cK3A5-1">
          <mxGeometry x="20" y="200" width="180" height="30" as="geometry" />
        </mxCell>
        <mxCell id="53xvMtXIrenrTS2cK3A5-7" value="QQ服务器群" style="swimlane;fillColor=#dae8fc;" vertex="1" parent="1">
          <mxGeometry x="300" y="20" width="220" height="300" as="geometry" />
        </mxCell>
        <mxCell id="53xvMtXIrenrTS2cK3A5-8" value="认证服务器" style="rounded=1;whiteSpace=wrap;html=1;fillColor=#ffffff;" vertex="1" parent="53xvMtXIrenrTS2cK3A5-7">
          <mxGeometry x="20" y="40" width="180" height="30" as="geometry" />
        </mxCell>
        <mxCell id="53xvMtXIrenrTS2cK3A5-9" value="消息服务器" style="rounded=1;whiteSpace=wrap;html=1;fillColor=#ffffff;" vertex="1" parent="53xvMtXIrenrTS2cK3A5-7">
          <mxGeometry x="20" y="80" width="180" height="30" as="geometry" />
        </mxCell>
        <mxCell id="53xvMtXIrenrTS2cK3A5-10" value="文件服务器" style="rounded=1;whiteSpace=wrap;html=1;fillColor=#ffffff;" vertex="1" parent="53xvMtXIrenrTS2cK3A5-7">
          <mxGeometry x="20" y="120" width="180" height="30" as="geometry" />
        </mxCell>
        <mxCell id="53xvMtXIrenrTS2cK3A5-11" value="用户数据服务器" style="rounded=1;whiteSpace=wrap;html=1;fillColor=#ffffff;" vertex="1" parent="53xvMtXIrenrTS2cK3A5-7">
          <mxGeometry x="20" y="160" width="180" height="30" as="geometry" />
        </mxCell>
        <mxCell id="53xvMtXIrenrTS2cK3A5-12" value="状态服务器" style="rounded=1;whiteSpace=wrap;html=1;fillColor=#ffffff;" vertex="1" parent="53xvMtXIrenrTS2cK3A5-7">
          <mxGeometry x="20" y="200" width="180" height="30" as="geometry" />
        </mxCell>
        <mxCell id="53xvMtXIrenrTS2cK3A5-13" style="endArrow=block;strokeWidth=2;" edge="1" parent="1" source="53xvMtXIrenrTS2cK3A5-1" target="53xvMtXIrenrTS2cK3A5-7">
          <mxGeometry relative="1" as="geometry" />
        </mxCell>
        <mxCell id="53xvMtXIrenrTS2cK3A5-14" value="用户设备 (PC/手机)" style="swimlane;fillColor=#fff2cc;" vertex="1" parent="1">
          <mxGeometry x="20" y="350" width="220" height="100" as="geometry" />
        </mxCell>
        <mxCell id="53xvMtXIrenrTS2cK3A5-15" value="QQ客户端应用" style="rounded=1;whiteSpace=wrap;html=1;fillColor=#ffffff;" vertex="1" parent="53xvMtXIrenrTS2cK3A5-14">
          <mxGeometry x="20" y="40" width="180" height="30" as="geometry" />
        </mxCell>
        <mxCell id="53xvMtXIrenrTS2cK3A5-16" value="腾讯服务器集群" style="swimlane;fillColor=#f8cecc;" vertex="1" parent="1">
          <mxGeometry x="300" y="350" width="220" height="150" as="geometry" />
        </mxCell>
        <mxCell id="53xvMtXIrenrTS2cK3A5-17" value="数据中心、负载均衡、分布式存储" style="rounded=1;whiteSpace=wrap;html=1;fillColor=#ffffff;" vertex="1" parent="53xvMtXIrenrTS2cK3A5-16">
          <mxGeometry x="20" y="40" width="180" height="60" as="geometry" />
        </mxCell>
        <mxCell id="53xvMtXIrenrTS2cK3A5-18" style="endArrow=block;strokeWidth=2;" edge="1" parent="1" source="53xvMtXIrenrTS2cK3A5-14" target="53xvMtXIrenrTS2cK3A5-16">
          <mxGeometry relative="1" as="geometry" />
        </mxCell>
      </root>
    </mxGraphModel>
  </diagram>
</mxfile>
